<svg xmlns="http://www.w3.org/2000/svg" fill="#01ECF3" height="30" viewBox="0 96 960 960" width="30"><path d="M480.139 973Q398 973 326.706 941.79q-71.293-31.211-125.498-85.146-54.205-53.936-85.206-125.152Q85 660.277 85 578.139 85 496 116.002 424.646q31.001-71.354 85.169-125.415 54.168-54.06 125.413-85.843Q397.828 181.605 480 181.605V78l166 167-166.143 166.872v-105.17q-112.371 0-191.114 79.494Q210 465.69 210 577.942q0 69.058 32.049 127.859 32.049 58.8 85.19 94.199 16.961-29.333 48.823-49.458 31.863-20.125 74.938-25.119-3-21.423-9.088-44.073Q435.824 658.7 430 641q-11.871 8.526-24.949 14.263Q391.972 661 375.401 661q-34.475 0-57.938-23.431Q294 614.139 294 578.688v-41.395q0-18.655-6.5-33.974Q281 488 272 473q51.933 1 92 10 35.023 10.33 65.003 31.636 29.979 21.305 30.997 63.915 0 8.232-2.5 15.84Q455 602 452 610q-13.333-9.231-27.167-17.615Q411 584 397 578q16.993 13.806 40.071 41.557Q460.15 647.308 480 685q22-51 52.7-99.685Q563.4 536.63 605 494q-23.106 17.667-45.264 36.06Q537.579 548.452 517 569q-6.533-12.064-10.767-25.628Q502 529.809 502 515.298q0-43.772 30.036-73.535Q562.072 412 605.044 412h40.735q23.722 0 39.781-6.486 16.058-6.486 25.764-15.135Q723.394 381.75 730 370q3 69-8.55 125.327-7.167 46.423-34.017 85.048T605.614 619q-16.463 0-30.881-5.067Q560.316 608.867 550 604q-6.84 18.549-15.811 52.138Q525.217 689.727 518 726q39.477 8.084 70.171 27.544Q618.865 773.003 634 800q53.384-35.729 84.982-94.196Q750.58 647.336 750.58 578H876q0 82.172-31.71 153.416-31.71 71.245-85.646 125.413-53.936 54.168-125.152 85.169Q562.277 973 480.139 973Z"/></svg>