<svg xmlns="http://www.w3.org/2000/svg" fill="#01ECF3" height="48" viewBox="0 96 960 960" width="48"><path d="M229 994q-36.775 0-63.888-27.112Q138 939.775 138 903V488q0-38.588 27.112-65.294Q192.225 396 229 396h53v-74q0-83.965 57.921-142.483Q397.843 121 479.731 121q81.889 0 140.079 58.517Q678 238.035 678 322v74h53q37.188 0 64.594 26.706Q823 449.412 823 488v415q0 36.775-27.406 63.888Q768.188 994 731 994H229Zm0-91h502V488H229v415Zm251.248-132Q512 771 533.5 749.385q21.5-21.616 21.5-51.969Q555 668 533.252 644q-21.748-24-53.5-24T426.5 643.936Q405 667.872 405 697.58q0 30.12 21.748 51.77 21.748 21.65 53.5 21.65ZM373 396h214v-73.769q0-47.731-30.973-78.481Q525.054 213 480.235 213q-44.818 0-76.027 30.75Q373 274.5 373 322.231V396ZM229 903V488v415Z"/></svg>