<svg xmlns="http://www.w3.org/2000/svg" fill="#01ECF3" height="48" viewBox="0 96 960 960" width="48"><path d="M164.413 861q-68.52 0-115.467-47.325Q2 766.35 2 699q0-64.607 42.5-109.803Q87 544 151 540l-37-28H2v-73h186l99 71 157-59h120l-70-89h-81v-71h117l85 110 130-66v118h-92l75 97q16-4.5 32.5-8.25T796 538q67 0 115 46.752t48 115Q959 767 911 814t-115.5 47Q728 861 682 814.175t-46-113.723Q636 669 645.5 642q9.5-27 27.5-49l-28-36-142 220H399l-74-69q-3 65-50.5 109t-110.087 44Zm-1.037-71Q202 790 228.5 764.124q26.5-25.876 26.5-65Q255 660 228.708 634q-26.292-26-65-26T98 634.17q-27 26.17-27 64.706t26.876 64.83Q124.752 790 163.376 790ZM458 522l-163 61 163-61h128-128Zm337.46 268q38.708 0 66.124-25.376Q889 739.248 889 700.54t-27.292-65.624Q834.416 608 795.708 608T731.5 634.792q-25.5 26.792-25.5 65.5t25.376 64.208Q756.752 790 795.46 790ZM465 706l121-184H458l-163 61 130 123h40Z"/></svg>