<svg xmlns="http://www.w3.org/2000/svg" fill="#01ECF3" height="48" viewBox="0 96 960 960" width="48"><path d="M480 1004q-19 0-35.098-7.348Q428.805 989.304 416 977L79 640q-12.304-12.805-19.652-28.902Q52 595 52 576t7.196-34.976Q66.39 525.049 79 512l337-337q12.805-13.696 28.902-20.348Q461 148 480 148t34.976 6.804Q530.951 161.609 544 175l337 337q13.391 13.049 20.196 29.024Q908 557 908 576t-6.652 35.098Q894.696 627.195 881 640L544 977q-13.049 12.609-29.024 19.804Q499 1004 480 1004Zm0-93 336-335-336-336-335 336 335 335Z"/></svg>