<svg xmlns="http://www.w3.org/2000/svg" fill="#01ECF3" height="48" viewBox="0 96 960 960" width="48"><path d="M407.174 730.81q22.718 23.19 66.772 21.69T537 720l234-357-353 237q-30 19-32 63.551-2 44.55 21.174 67.259ZM477.736 234q61.091 0 130.885 21Q678.416 276 735 321l-81 59q-45-29-92-41.5T477.339 326q-135.833 0-232.086 96.984Q149 519.968 149 659.635 149 705 160.5 747.5 172 790 193.927 827H760.84q20.683-35.95 32.921-79.3Q806 704.349 806 658q0-39-10-85t-42-86l61-80q41.154 58.85 60.577 121.925Q895 592 898 652.5q2 61.438-13.018 118.29Q869.964 827.642 841 874q-17 28-34.339 36T762 918H193q-24.136 0-45.568-12T115 874q-28-47-42.5-101.475Q58 718.05 58 659.21 58 572 91.057 495.793q33.056-76.206 90.089-134.913 57.033-58.706 134.623-92.793Q393.36 234 477.736 234ZM482 575Z"/></svg>