<svg width="27" height="27" viewBox="0 0 27 27" fill="none" xmlns="http://www.w3.org/2000/svg">
<circle cx="25.5" cy="1.5" r="1.5" transform="rotate(90 25.5 1.5)" fill="white" fill-opacity="0.5"/>
<circle cx="17.5" cy="1.5" r="1.5" transform="rotate(90 17.5 1.5)" fill="white" fill-opacity="0.5"/>
<circle cx="25.5" cy="9.5" r="1.5" transform="rotate(90 25.5 9.5)" fill="white" fill-opacity="0.5"/>
<circle cx="25.5" cy="17.5" r="1.5" transform="rotate(90 25.5 17.5)" fill="white" fill-opacity="0.5"/>
<circle cx="25.5" cy="25.5" r="1.5" transform="rotate(90 25.5 25.5)" fill="white" fill-opacity="0.5"/>
<circle cx="17.5" cy="9.5" r="1.5" transform="rotate(90 17.5 9.5)" fill="white" fill-opacity="0.5"/>
<circle cx="17.5" cy="17.5" r="1.5" transform="rotate(90 17.5 17.5)" fill="white" fill-opacity="0.5"/>
<circle cx="17.5" cy="25.5" r="1.5" transform="rotate(90 17.5 25.5)" fill="white" fill-opacity="0.5"/>
<circle cx="9.5" cy="17.5" r="1.5" transform="rotate(90 9.5 17.5)" fill="white" fill-opacity="0.5"/>
<circle cx="9.5" cy="9.5" r="1.5" transform="rotate(90 9.5 9.5)" fill="white" fill-opacity="0.5"/>
<circle cx="1.5" cy="17.5" r="1.5" transform="rotate(90 1.5 17.5)" fill="white" fill-opacity="0.5"/>
<circle cx="9.5" cy="25.5" r="1.5" transform="rotate(90 9.5 25.5)" fill="white" fill-opacity="0.5"/>
<circle cx="1.5" cy="25.5" r="1.5" transform="rotate(90 1.5 25.5)" fill="white" fill-opacity="0.5"/>
</svg>
