<svg width="492" height="191" viewBox="0 0 492 191" fill="#111111" xmlns="http://www.w3.org/2000/svg">
<path d="M166.503 74.0591C170.222 74.0591 173.441 74.6789 176.16 75.9184C178.919 77.1579 181.038 78.9173 182.517 81.1965C183.997 83.4756 184.737 86.1746 184.737 89.2935C184.737 92.3723 183.997 95.0713 182.517 97.3905C181.038 99.6696 178.919 101.429 176.16 102.669C173.441 103.868 170.222 104.468 166.503 104.468H158.046V116.044H148.33V74.0591H166.503ZM165.964 96.5508C168.882 96.5508 171.102 95.931 172.621 94.6915C174.141 93.4119 174.9 91.6126 174.9 89.2935C174.9 86.9343 174.141 85.135 172.621 83.8955C171.102 82.6159 168.882 81.9762 165.964 81.9762H158.046V96.5508H165.964Z" fill="#111111"/>
<path d="M196.952 88.0339C198.071 86.4745 199.571 85.2949 201.45 84.4952C203.369 83.6955 205.568 83.2957 208.047 83.2957V91.9325C207.008 91.8525 206.308 91.8125 205.948 91.8125C203.269 91.8125 201.17 92.5723 199.651 94.0917C198.131 95.5711 197.371 97.8103 197.371 100.809V116.044H188.015V83.7755H196.952V88.0339Z" fill="#111111"/>
<path d="M225.673 116.523C222.275 116.523 219.216 115.824 216.497 114.424C213.818 112.985 211.719 111.005 210.199 108.486C208.68 105.967 207.92 103.108 207.92 99.9095C207.92 96.7107 208.68 93.8518 210.199 91.3327C211.719 88.8136 213.818 86.8544 216.497 85.4549C219.216 84.0154 222.275 83.2957 225.673 83.2957C229.072 83.2957 232.111 84.0154 234.79 85.4549C237.469 86.8544 239.568 88.8136 241.088 91.3327C242.607 93.8518 243.367 96.7107 243.367 99.9095C243.367 103.108 242.607 105.967 241.088 108.486C239.568 111.005 237.469 112.985 234.79 114.424C232.111 115.824 229.072 116.523 225.673 116.523ZM225.673 108.846C228.073 108.846 230.032 108.047 231.551 106.447C233.111 104.808 233.89 102.629 233.89 99.9095C233.89 97.1906 233.111 95.0313 231.551 93.4319C230.032 91.7925 228.073 90.9728 225.673 90.9728C223.274 90.9728 221.295 91.7925 219.736 93.4319C218.176 95.0313 217.396 97.1906 217.396 99.9095C217.396 102.629 218.176 104.808 219.736 106.447C221.295 108.047 223.274 108.846 225.673 108.846Z" fill="#111111"/>
<path d="M285.788 74.0591V116.044H277.811L256.878 90.553V116.044H247.282V74.0591H255.319L276.191 99.5497V74.0591H285.788Z" fill="#111111"/>
<path d="M305.078 83.2957C310.076 83.2957 313.914 84.4952 316.593 86.8944C319.272 89.2535 320.612 92.8322 320.612 97.6304V116.044H311.855V112.025C310.096 115.024 306.817 116.523 302.019 116.523C299.54 116.523 297.38 116.104 295.541 115.264C293.742 114.424 292.362 113.265 291.403 111.785C290.443 110.306 289.963 108.626 289.963 106.747C289.963 103.748 291.083 101.389 293.322 99.6696C295.601 97.9503 299.1 97.0906 303.818 97.0906H311.255C311.255 95.0513 310.636 93.4919 309.396 92.4123C308.156 91.2927 306.297 90.7329 303.818 90.7329C302.099 90.7329 300.399 91.0128 298.72 91.5726C297.081 92.0924 295.681 92.8122 294.521 93.7318L291.163 87.1942C292.922 85.9547 295.021 84.9951 297.46 84.3153C299.939 83.6356 302.479 83.2957 305.078 83.2957ZM304.358 110.226C305.957 110.226 307.377 109.866 308.616 109.146C309.856 108.386 310.735 107.287 311.255 105.847V102.549H304.838C300.999 102.549 299.08 103.808 299.08 106.327C299.08 107.527 299.54 108.486 300.459 109.206C301.419 109.886 302.718 110.226 304.358 110.226Z" fill="#111111"/>
<path d="M346.893 114.484C345.974 115.164 344.834 115.684 343.475 116.044C342.155 116.363 340.756 116.523 339.276 116.523C335.438 116.523 332.459 115.544 330.34 113.585C328.26 111.625 327.221 108.746 327.221 104.948V91.6926H322.243V84.4952H327.221V76.6381H336.577V84.4952H344.614V91.6926H336.577V104.828C336.577 106.187 336.917 107.247 337.597 108.007C338.317 108.726 339.316 109.086 340.596 109.086C342.075 109.086 343.335 108.686 344.374 107.887L346.893 114.484Z" fill="#111111"/>
<path d="M381.655 83.7755V116.044H372.778V112.205C371.539 113.604 370.059 114.684 368.34 115.444C366.62 116.164 364.761 116.523 362.762 116.523C358.523 116.523 355.165 115.304 352.685 112.865C350.206 110.426 348.967 106.807 348.967 102.009V83.7755H358.323V100.629C358.323 105.827 360.503 108.426 364.861 108.426C367.1 108.426 368.9 107.707 370.259 106.267C371.618 104.788 372.298 102.609 372.298 99.7296V83.7755H381.655Z" fill="#111111"/>
<path d="M396.261 88.0339C397.38 86.4745 398.88 85.2949 400.759 84.4952C402.678 83.6955 404.878 83.2957 407.357 83.2957V91.9325C406.317 91.8525 405.617 91.8125 405.258 91.8125C402.578 91.8125 400.479 92.5723 398.96 94.0917C397.44 95.5711 396.681 97.8103 396.681 100.809V116.044H387.324V83.7755H396.261V88.0339Z" fill="#111111"/>
<path d="M441.237 100.03C441.237 100.149 441.177 100.989 441.057 102.549H416.646C417.086 104.548 418.125 106.127 419.765 107.287C421.404 108.446 423.443 109.026 425.882 109.026C427.562 109.026 429.041 108.786 430.321 108.306C431.64 107.787 432.86 106.987 433.979 105.907L438.958 111.305C435.919 114.784 431.48 116.523 425.642 116.523C422.004 116.523 418.785 115.824 415.986 114.424C413.187 112.985 411.028 111.005 409.508 108.486C407.989 105.967 407.229 103.108 407.229 99.9095C407.229 96.7507 407.969 93.9118 409.448 91.3927C410.968 88.8336 413.027 86.8544 415.626 85.4549C418.265 84.0154 421.204 83.2957 424.443 83.2957C427.602 83.2957 430.461 83.9754 433.02 85.3349C435.579 86.6944 437.578 88.6537 439.018 91.2128C440.497 93.7318 441.237 96.6707 441.237 100.03ZM424.503 90.3731C422.384 90.3731 420.604 90.9728 419.165 92.1724C417.725 93.372 416.846 95.0114 416.526 97.0906H432.42C432.1 95.0513 431.22 93.4319 429.781 92.2324C428.341 90.9928 426.582 90.3731 424.503 90.3731Z" fill="#111111"/>
<path fill-rule="evenodd" clip-rule="evenodd" d="M95.045 50.6776C93.6194 49.8529 91.8617 49.8529 90.4361 50.6776C80.3102 56.5351 73.4807 67.4946 73.4807 80.0547C73.4807 81.8448 73.6195 83.6024 73.8867 85.3174C66.9161 82.9501 59.3686 83.8115 53.2039 87.3638C51.7769 88.1861 50.898 89.7083 50.8994 91.3552C50.9067 100.044 55.4203 108.512 63.5039 113.179C67.4696 115.469 71.7981 116.557 76.0677 116.559C75.4181 118.4 75.0647 120.38 75.0647 122.443C75.0647 132.205 82.9782 140.118 92.7399 140.118C102.502 140.118 110.415 132.205 110.415 122.443C110.415 120.375 110.06 118.391 109.408 116.547C113.423 116.42 117.467 115.33 121.191 113.179C129.275 108.512 133.788 100.044 133.795 91.3556C133.797 89.7086 132.918 88.1865 131.491 87.3642C125.569 83.9518 118.371 83.0225 111.635 85.053C111.876 83.4219 112 81.7529 112 80.0547C112 67.4946 105.171 56.5351 95.045 50.6776ZM82.6851 80.0547C82.6851 71.8985 86.6343 64.6604 92.7405 60.155C98.8468 64.6604 102.796 71.8985 102.796 80.0547C102.796 88.2108 98.8468 95.4489 92.7405 99.9543C86.6343 95.4489 82.6851 88.2108 82.6851 80.0547ZM110.891 95.3393C115.141 92.8855 120.052 92.6001 124.342 94.1527C123.542 98.6442 120.839 102.754 116.589 105.208C112.339 107.662 107.428 107.947 103.138 106.395C103.938 101.903 106.641 97.7931 110.891 95.3393ZM60.3531 94.1524C64.6429 92.5997 69.5537 92.8852 73.8038 95.339C78.054 97.7928 80.7566 101.903 81.5569 106.394C77.267 107.947 72.3562 107.662 68.1061 105.208C63.856 102.754 61.1533 98.6439 60.3531 94.1524ZM84.2691 122.443C84.2691 117.765 88.0616 113.972 92.7399 113.972C97.4182 113.972 101.211 117.765 101.211 122.443C101.211 127.121 97.4182 130.914 92.7399 130.914C88.0616 130.914 84.2691 127.121 84.2691 122.443Z" fill="#111111"/>
</svg>
