<svg width="584" height="227" viewBox="0 0 584 227" fill="#111111" xmlns="http://www.w3.org/2000/svg">
<path fill-rule="evenodd" clip-rule="evenodd" d="M255.712 145.89L229.7 104.967H217.865V145.89H209.239V50.0029H239.664C242.918 50.0029 245.971 50.627 248.824 51.8752C251.677 53.0788 254.174 54.7505 256.313 56.8902C258.453 59.0299 260.125 61.5486 261.328 64.4461C262.577 67.2991 263.201 70.3527 263.201 73.6069V81.3634C263.201 84.6176 262.577 87.6935 261.328 90.591C260.125 93.444 258.453 95.9404 256.313 98.0801C254.174 100.22 251.677 101.914 248.824 103.162C245.971 104.366 242.918 104.967 239.664 104.967L265.675 145.89H255.712ZM254.575 73.6069C254.575 71.4671 254.174 69.4834 253.371 67.6557C252.569 65.7835 251.477 64.1564 250.095 62.7745C248.713 61.348 247.086 60.2335 245.214 59.4311C243.386 58.6287 241.402 58.2275 239.262 58.2275H217.865V96.7428H239.262C241.402 96.7428 243.386 96.3416 245.214 95.5392C247.086 94.7368 248.713 93.6446 250.095 92.2627C251.477 90.8362 252.569 89.2091 253.371 87.3814C254.174 85.5092 254.575 83.5032 254.575 81.3634V73.6069Z" fill="#111111"/>
<path fill-rule="evenodd" clip-rule="evenodd" d="M318.339 127.1C318.339 129.864 317.804 132.472 316.734 134.924C315.709 137.375 314.282 139.515 312.455 141.343C310.627 143.171 308.487 144.619 306.036 145.689C303.584 146.715 300.976 147.227 298.212 147.227H292.729C289.965 147.227 287.357 146.715 284.906 145.689C282.454 144.619 280.314 143.171 278.486 141.343C276.659 139.515 275.21 137.375 274.14 134.924C273.115 132.472 272.602 129.864 272.602 127.1V96.2078C272.602 93.444 273.115 90.8362 274.14 88.3844C275.21 85.9326 276.659 83.7929 278.486 81.9652C280.314 80.1375 282.454 78.711 284.906 77.6858C287.357 76.6159 289.965 76.081 292.729 76.081H298.212C300.976 76.081 303.584 76.6159 306.036 77.6858C308.487 78.711 310.627 80.1375 312.455 81.9652C314.282 83.7929 315.709 85.9326 316.734 88.3844C317.804 90.8362 318.339 93.444 318.339 96.2078V127.1ZM310.114 95.7398C310.114 94.0904 309.802 92.5525 309.178 91.126C308.554 89.6549 307.707 88.3844 306.637 87.3146C305.567 86.2447 304.297 85.3977 302.826 84.7736C301.399 84.1495 299.862 83.8375 298.212 83.8375H292.729C291.08 83.8375 289.519 84.1495 288.048 84.7736C286.622 85.3977 285.374 86.2447 284.304 87.3146C283.234 88.3844 282.387 89.6549 281.763 91.126C281.139 92.5525 280.827 94.0904 280.827 95.7398V127.568C280.827 129.218 281.139 130.778 281.763 132.249C282.387 133.675 283.234 134.924 284.304 135.994C285.374 137.063 286.622 137.91 288.048 138.534C289.519 139.159 291.08 139.471 292.729 139.471H298.212C299.862 139.471 301.399 139.159 302.826 138.534C304.297 137.91 305.567 137.063 306.637 135.994C307.707 134.924 308.554 133.675 309.178 132.249C309.802 130.778 310.114 129.218 310.114 127.568V95.7398Z" fill="#111111"/>
<path fill-rule="evenodd" clip-rule="evenodd" d="M372.073 134.924C373.143 132.472 373.678 129.864 373.678 127.1V96.2078C373.678 93.444 373.143 90.8362 372.073 88.3844C371.048 85.9326 369.621 83.7929 367.794 81.9652C365.966 80.1375 363.826 78.711 361.374 77.6858C358.923 76.6159 356.315 76.081 353.551 76.081H351.478C348.402 76.081 345.549 76.705 342.919 77.9532C340.289 79.2014 338.038 80.9399 336.166 83.1688V50.0029H327.941V127.1C327.941 129.864 328.454 132.472 329.479 134.924C330.549 137.375 331.998 139.515 333.825 141.343C335.653 143.171 337.793 144.619 340.245 145.689C342.696 146.715 345.304 147.227 348.068 147.227H353.551C356.315 147.227 358.923 146.715 361.374 145.689C363.826 144.619 365.966 143.171 367.794 141.343C369.621 139.515 371.048 137.375 372.073 134.924ZM364.517 91.126C365.141 92.5525 365.453 94.0904 365.453 95.7398V127.568C365.453 129.218 365.141 130.778 364.517 132.249C363.893 133.675 363.046 134.924 361.976 135.994C360.906 137.063 359.636 137.91 358.165 138.534C356.738 139.159 355.2 139.471 353.551 139.471H348.068C346.419 139.471 344.858 139.159 343.387 138.534C341.961 137.91 340.713 137.063 339.643 135.994C338.573 134.924 337.726 133.675 337.102 132.249C336.478 130.778 336.166 129.218 336.166 127.568V95.7398C336.166 94.0904 336.478 92.5525 337.102 91.126C337.726 89.6549 338.573 88.3844 339.643 87.3146C340.713 86.2447 341.961 85.3977 343.387 84.7736C344.858 84.1495 346.419 83.8375 348.068 83.8375H353.551C355.2 83.8375 356.738 84.1495 358.165 84.7736C359.636 85.3977 360.906 86.2447 361.976 87.3146C363.046 88.3844 363.893 89.6549 364.517 91.126Z" fill="#111111"/>
<path fill-rule="evenodd" clip-rule="evenodd" d="M429.017 127.1C429.017 129.864 428.482 132.472 427.412 134.924C426.387 137.375 424.96 139.515 423.133 141.343C421.305 143.171 419.165 144.619 416.713 145.689C414.262 146.715 411.654 147.227 408.89 147.227H403.407C400.643 147.227 398.035 146.715 395.583 145.689C393.132 144.619 390.992 143.171 389.164 141.343C387.337 139.515 385.888 137.375 384.818 134.924C383.793 132.472 383.28 129.864 383.28 127.1V96.2078C383.28 93.444 383.793 90.8362 384.818 88.3844C385.888 85.9326 387.337 83.7929 389.164 81.9652C390.992 80.1375 393.132 78.711 395.583 77.6858C398.035 76.6159 400.643 76.081 403.407 76.081H408.89C411.654 76.081 414.262 76.6159 416.713 77.6858C419.165 78.711 421.305 80.1375 423.133 81.9652C424.96 83.7929 426.387 85.9326 427.412 88.3844C428.482 90.8362 429.017 93.444 429.017 96.2078V127.1ZM420.792 95.7398C420.792 94.0904 420.48 92.5525 419.856 91.126C419.232 89.6549 418.385 88.3844 417.315 87.3146C416.245 86.2447 414.975 85.3977 413.504 84.7736C412.077 84.1495 410.539 83.8375 408.89 83.8375H403.407C401.758 83.8375 400.197 84.1495 398.726 84.7736C397.3 85.3977 396.052 86.2447 394.982 87.3146C393.912 88.3844 393.065 89.6549 392.441 91.126C391.817 92.5525 391.505 94.0904 391.505 95.7398V127.568C391.505 129.218 391.817 130.778 392.441 132.249C393.065 133.675 393.912 134.924 394.982 135.994C396.052 137.063 397.3 137.91 398.726 138.534C400.197 139.159 401.758 139.471 403.407 139.471H408.89C410.539 139.471 412.077 139.159 413.504 138.534C414.975 137.91 416.245 137.063 417.315 135.994C418.385 134.924 419.232 133.675 419.856 132.249C420.48 130.778 420.792 129.218 420.792 127.568V95.7398Z" fill="#111111"/>
<path d="M456.472 144.486C458.701 145.422 461.064 145.89 463.56 145.89H471.049V138.066H463.56C462.178 138.066 460.886 137.821 459.682 137.331C458.478 136.796 457.431 136.083 456.539 135.191C455.648 134.3 454.934 133.274 454.399 132.115C453.909 130.912 453.664 129.619 453.664 128.237V85.2417H471.049V77.4183H453.664V59.6317L445.439 60.9691V77.4183H433.136V85.2417H445.439V127.836C445.439 130.332 445.907 132.673 446.844 134.857C447.824 137.041 449.117 138.958 450.722 140.607C452.371 142.257 454.288 143.549 456.472 144.486Z" fill="#111111"/>
<path d="M504.322 106.037L524.048 145.89H533.343L508.936 96.609L531.938 50.0029H522.644L504.322 87.114L485.934 50.0029H476.64L499.642 96.609L475.235 145.89H484.597L504.322 106.037Z" fill="#111111"/>
<path fill-rule="evenodd" clip-rule="evenodd" d="M116.986 50.0029C100.581 50.0029 86.2362 56.4368 75.1097 64.2205C64.0009 71.9918 55.7798 81.3267 51.5145 87.7395C50.6134 89.0944 50.4279 90.8031 51.0173 92.3198L72.8548 148.51L59.8494 171L68.5061 176.006L82.7129 151.439C83.4723 150.125 83.5945 148.538 83.0449 147.124L61.3078 91.1923C65.261 85.8447 72.014 78.5902 80.8419 72.4145C90.8629 65.4042 103.236 60.0029 116.986 60.0029C129.982 60.0029 139.43 63.3488 146.331 68.4593C153.264 73.5939 158.004 80.7911 161.07 89.0944C166.697 104.335 166.44 122.675 164.159 136.295H120.476L113.044 116.07C118.252 112.366 121.678 106.372 121.678 99.5029C121.678 88.0326 112.125 79.0029 100.678 79.0029C89.2306 79.0029 79.6777 88.0326 79.6777 99.5029C79.6777 110.973 89.2306 120.003 100.678 120.003C101.721 120.003 102.749 119.928 103.755 119.783L112.293 143.02C113.016 144.987 114.89 146.295 116.986 146.295H168.303C170.668 146.295 172.709 144.639 173.196 142.325C176.334 127.419 177.531 104.807 170.451 85.6306C166.879 75.9564 161.128 66.9737 152.282 60.423C143.404 53.8481 131.783 50.0029 116.986 50.0029ZM89.6777 99.5029C89.6777 93.8524 94.4518 89.0029 100.678 89.0029C106.904 89.0029 111.678 93.8524 111.678 99.5029C111.678 105.153 106.904 110.003 100.678 110.003C94.4518 110.003 89.6777 105.153 89.6777 99.5029Z" fill="#111111"/>
</svg>
