<svg width="414" height="187" viewBox="0 0 414 187" fill="#111111" xmlns="http://www.w3.org/2000/svg">
<path d="M82.646 36.7157C85.7401 34.9294 89.552 34.9294 92.646 36.7157L133.614 60.3685L105.286 76.9559C100.901 72.5536 94.8325 69.8291 88.128 69.8291C81.1554 69.8291 74.871 72.7759 70.4523 77.4921L41.4416 60.5051L82.646 36.7157Z" fill="#111111"/>
<path d="M64.9303 87.0724L35.9141 70.0823V117.576L64.8222 100.649C64.2287 98.5498 63.9111 96.335 63.9111 94.046C63.9111 91.6218 64.2673 89.2807 64.9303 87.0724Z" fill="#111111"/>
<path d="M70.1924 110.318L41.8975 126.886L82.646 150.412C85.74 152.198 89.552 152.198 92.646 150.412L133.158 127.022L105.556 110.86C101.152 115.424 94.9714 118.263 88.128 118.263C81.0175 118.263 74.6227 115.198 70.1924 110.318Z" fill="#111111"/>
<path d="M111.22 101.363L139.376 117.85C139.377 117.786 139.378 117.722 139.378 117.658V69.8071L111.101 86.3643C111.908 88.778 112.345 91.361 112.345 94.046C112.345 96.5963 111.951 99.0545 111.22 101.363Z" fill="#111111"/>
<path fill-rule="evenodd" clip-rule="evenodd" d="M172.893 121.299C176.951 123.776 181.827 125.015 187.519 125.015C193.211 125.015 198.086 123.776 202.145 121.299C206.23 118.795 209.352 115.317 211.513 110.863C213.701 106.41 214.794 101.244 214.794 95.3677C214.794 89.491 213.701 84.3259 211.513 79.8722C209.352 75.4186 206.23 71.9532 202.145 69.476C198.086 66.9725 193.211 65.7207 187.519 65.7207C181.827 65.7207 176.951 66.9725 172.893 69.476C168.835 71.9532 165.712 75.4186 163.525 79.8722C161.364 84.3259 160.283 89.491 160.283 95.3677C160.283 101.244 161.364 106.41 163.525 110.863C165.712 115.317 168.835 118.795 172.893 121.299ZM197.046 113.512C194.516 115.225 191.34 116.068 187.519 116.042C183.698 115.989 180.509 115.106 177.953 113.393C175.423 111.68 173.526 109.295 172.261 106.238C170.996 103.155 170.363 99.5315 170.363 95.3677C170.363 91.204 170.996 87.5673 172.261 84.4576C173.552 81.348 175.462 78.9367 177.992 77.2237C180.522 75.5108 183.698 74.6675 187.519 74.6939C191.34 74.7466 194.516 75.6294 197.046 77.3423C199.602 79.0553 201.512 81.4534 202.777 84.5367C204.069 87.5936 204.714 91.204 204.714 95.3677C204.714 99.5315 204.069 103.168 202.777 106.278C201.512 109.387 199.602 111.799 197.046 113.512Z" fill="#111111"/>
<path d="M219.5 121.829C219.5 122.933 220.395 123.829 221.5 123.829H227.066C228.171 123.829 229.066 122.933 229.066 121.829V102.127C229.066 100.493 229.264 98.9781 229.659 97.5814C230.054 96.1583 230.66 94.8934 231.477 93.7866C232.321 92.6797 233.401 91.7706 234.719 91.059C236.036 90.2684 237.512 89.8073 239.146 89.6755C239.759 89.6268 240.345 89.6123 240.904 89.6319C242.237 89.6787 243.534 88.6979 243.534 87.3646V82.8314C243.534 81.8537 242.827 81.0057 241.851 80.9512C241.12 80.9105 240.376 80.9197 239.62 80.979C238.276 81.0581 236.959 81.3084 235.668 81.7301C234.403 82.1254 233.243 82.6788 232.189 83.3903C230.95 84.1546 229.883 85.1296 228.987 86.3155C228.597 86.8358 228.241 87.3827 227.92 87.9561V83.1372C227.92 82.0326 227.024 81.1372 225.92 81.1372H221.5C220.395 81.1372 219.5 82.0326 219.5 83.1372V121.829Z" fill="#111111"/>
<path fill-rule="evenodd" clip-rule="evenodd" d="M268.431 125.015C264.267 125.015 260.775 124.027 257.955 122.05C257.357 121.631 256.791 121.18 256.256 120.697V121.829C256.256 122.933 255.36 123.829 254.256 123.829H249.836C248.731 123.829 247.836 122.933 247.836 121.829V68.9066C247.836 67.802 248.731 66.9066 249.836 66.9066H255.441C256.546 66.9066 257.441 67.802 257.441 68.9066V83.2057C257.572 83.1074 257.703 83.0108 257.837 82.916C260.604 80.9395 264.016 79.9513 268.075 79.9513C272.107 79.9513 275.599 80.9395 278.55 82.916C281.528 84.8661 283.834 87.5409 285.468 90.9404C287.102 94.3136 287.919 98.1611 287.919 102.483C287.919 106.752 287.115 110.587 285.507 113.986C283.9 117.386 281.633 120.074 278.708 122.05C275.783 124.027 272.357 125.015 268.431 125.015ZM257.323 95.1701C256.611 97.252 256.256 99.6896 256.256 102.483C256.256 105.25 256.611 107.688 257.323 109.796C258.061 111.904 259.207 113.551 260.762 114.737C262.343 115.897 264.412 116.476 266.968 116.476C269.445 116.476 271.488 115.857 273.095 114.619C274.703 113.38 275.888 111.707 276.653 109.598C277.443 107.464 277.839 105.092 277.839 102.483C277.839 99.9004 277.443 97.555 276.653 95.4468C275.862 93.3122 274.637 91.6256 272.976 90.387C271.316 89.1221 269.208 88.4896 266.652 88.4896C264.227 88.4896 262.251 89.0826 260.722 90.2684C259.194 91.428 258.061 93.0618 257.323 95.1701Z" fill="#111111"/>
<path d="M294.26 121.829C294.26 122.933 295.155 123.829 296.26 123.829H301.787C302.891 123.829 303.787 122.933 303.787 121.829V83.1372C303.787 82.0326 302.891 81.1372 301.787 81.1372H296.26C295.155 81.1372 294.26 82.0326 294.26 83.1372V121.829Z" fill="#111111"/>
<path d="M337.487 122.168C337.487 123.131 336.802 123.963 335.849 124.102C333.594 124.432 331.373 124.565 329.186 124.501C326.498 124.448 324.087 123.961 321.952 123.038C319.818 122.09 318.197 120.601 317.09 118.571C316.115 116.727 315.601 114.843 315.548 112.919C315.496 110.995 315.469 108.821 315.469 106.396V88.6082H309.722C308.617 88.6082 307.722 87.7128 307.722 86.6082V83.1372C307.722 82.0326 308.617 81.1372 309.722 81.1372H315.469V71.2783C315.469 70.1738 316.365 69.2783 317.469 69.2783H322.956C324.061 69.2783 324.956 70.1738 324.956 71.2783V81.1372H335.487C336.592 81.1372 337.487 82.0326 337.487 83.1372V86.6082C337.487 87.7128 336.592 88.6082 335.487 88.6082H324.956V105.843C324.956 107.556 324.97 109.058 324.996 110.349C325.049 111.641 325.325 112.695 325.826 113.512C326.775 115.093 328.29 115.976 330.372 116.16C331.833 116.29 333.438 116.276 335.185 116.12C336.402 116.011 337.487 116.941 337.487 118.163V122.168Z" fill="#111111"/>
<path d="M348.617 122.09C351.726 124.04 355.481 125.015 359.882 125.015C364.652 125.015 368.684 123.855 371.978 121.536C374.74 119.57 376.807 116.9 378.179 113.527C378.617 112.449 377.929 111.279 376.794 111.026L370.928 109.714C369.93 109.491 368.942 110.068 368.491 110.986C367.807 112.378 366.927 113.496 365.851 114.342C364.402 115.501 362.412 116.081 359.882 116.081C356.298 116.081 353.597 114.829 351.779 112.326C349.961 109.822 349.051 106.541 349.051 102.483C349.051 99.8741 349.433 97.5418 350.198 95.4863C350.962 93.4308 352.148 91.8233 353.755 90.6637C355.363 89.4779 357.405 88.8849 359.882 88.8849C362.07 88.8849 364.02 89.5306 365.733 90.8218C366.977 91.7405 367.964 92.9302 368.693 94.391C369.171 95.3465 370.22 95.9387 371.251 95.6594L377.014 94.0986C378.061 93.815 378.703 92.7432 378.343 91.7198C377.169 88.3791 375.153 85.6817 372.295 83.6275C368.948 81.1767 364.85 79.9513 360.001 79.9513C355.679 79.9513 351.95 80.9263 348.814 82.8764C345.678 84.8002 343.254 87.4619 341.541 90.8614C339.854 94.2346 338.998 98.1084 338.971 102.483C338.998 106.779 339.828 110.626 341.462 114.026C343.122 117.425 345.507 120.113 348.617 122.09Z" fill="#111111"/>
<path d="M294.033 69.6335L296.716 66.9504C297.887 65.7788 299.787 65.7788 300.958 66.9504L303.641 69.6335C304.813 70.8051 304.813 72.7046 303.641 73.8762L300.958 76.5592C299.787 77.7308 297.887 77.7308 296.716 76.5592L294.033 73.8762C292.861 72.7046 292.861 70.8051 294.033 69.6335Z" fill="#111111"/>
</svg>
