<svg width="409" height="179" viewBox="0 0 409 179" fill="#111111" xmlns="http://www.w3.org/2000/svg">
<path d="M168.511 72.133V127.632H154.992V104.784H133.962V127.632H120.443V72.133H133.962V93.8741H154.992V72.133H168.511Z" fill="#111111"/>
<path d="M181.907 78.932C179.535 78.932 177.585 78.2468 176.057 76.8765C174.581 75.4534 173.843 73.7141 173.843 71.6586C173.843 69.5504 174.581 67.8111 176.057 66.4407C177.585 65.0177 179.535 64.3062 181.907 64.3062C184.226 64.3062 186.124 65.0177 187.599 66.4407C189.128 67.8111 189.892 69.5504 189.892 71.6586C189.892 73.7141 189.128 75.4534 187.599 76.8765C186.124 78.2468 184.226 78.932 181.907 78.932ZM188.627 83.5174V127.632H175.108V83.5174H188.627Z" fill="#111111"/>
<path d="M219.849 116.169V127.632H212.971C208.069 127.632 204.248 126.446 201.508 124.075C198.767 121.65 197.397 117.724 197.397 112.295V94.7438H192.021V83.5174H197.397V72.7654H210.916V83.5174H219.77V94.7438H210.916V112.453C210.916 113.771 211.232 114.719 211.864 115.299C212.497 115.879 213.551 116.169 215.027 116.169H219.849Z" fill="#111111"/>
<path d="M265.802 104.863C265.802 106.128 265.723 107.446 265.565 108.816H234.969C235.18 111.557 236.05 113.665 237.578 115.141C239.159 116.564 241.083 117.276 243.349 117.276C246.723 117.276 249.068 115.852 250.386 113.006H264.774C264.036 115.905 262.692 118.514 260.742 120.833C258.845 123.152 256.447 124.971 253.548 126.288C250.649 127.606 247.408 128.265 243.824 128.265C239.502 128.265 235.654 127.342 232.281 125.498C228.908 123.653 226.273 121.018 224.375 117.592C222.478 114.166 221.529 110.16 221.529 105.575C221.529 100.989 222.452 96.9838 224.296 93.5579C226.194 90.132 228.829 87.4967 232.202 85.652C235.575 83.8073 239.449 82.885 243.824 82.885C248.093 82.885 251.888 83.781 255.208 85.573C258.529 87.365 261.111 89.9212 262.956 93.2417C264.853 96.5621 265.802 100.436 265.802 104.863ZM251.967 101.306C251.967 98.9866 251.176 97.1419 249.595 95.7715C248.014 94.4012 246.037 93.716 243.666 93.716C241.399 93.716 239.476 94.3748 237.894 95.6925C236.366 97.0101 235.417 98.8812 235.048 101.306H251.967Z" fill="#111111"/>
<path d="M267.084 105.575C267.084 100.989 268.006 96.9838 269.851 93.5579C271.748 90.132 274.357 87.4967 277.678 85.652C281.051 83.8073 284.898 82.885 289.22 82.885C294.754 82.885 299.366 84.3344 303.055 87.2332C306.798 90.132 309.248 94.2167 310.408 99.4873H296.019C294.807 96.1141 292.462 94.4275 288.983 94.4275C286.506 94.4275 284.529 95.4026 283.054 97.3527C281.578 99.2501 280.84 101.991 280.84 105.575C280.84 109.159 281.578 111.926 283.054 113.876C284.529 115.773 286.506 116.722 288.983 116.722C292.462 116.722 294.807 115.036 296.019 111.662H310.408C309.248 116.828 306.798 120.886 303.055 123.837C299.313 126.789 294.702 128.265 289.22 128.265C284.898 128.265 281.051 127.342 277.678 125.498C274.357 123.653 271.748 121.018 269.851 117.592C268.006 114.166 267.084 110.16 267.084 105.575Z" fill="#111111"/>
<path d="M341.594 83.0431C346.654 83.0431 350.712 84.7297 353.769 88.1028C356.826 91.4233 358.355 96.0087 358.355 101.859V127.632H344.915V103.677C344.915 100.726 344.15 98.4332 342.622 96.7993C341.093 95.1654 339.038 94.3485 336.455 94.3485C333.873 94.3485 331.817 95.1654 330.289 96.7993C328.76 98.4332 327.996 100.726 327.996 103.677V127.632H314.477V69.1287H327.996V89.4468C329.366 87.4967 331.237 85.9419 333.609 84.7824C335.981 83.6228 338.643 83.0431 341.594 83.0431Z" fill="#111111"/>
<path d="M50.4434 98.622L50.4434 50.6323H66.4434L66.4434 75.3013C69.2359 74.2233 72.2706 73.6323 75.4434 73.6323C89.2505 73.6323 100.443 84.8252 100.443 98.6323V127.632H84.4434V98.6323C84.4434 93.6618 80.4139 89.6323 75.4434 89.6323C70.475 89.6323 66.4469 93.6582 66.4434 98.6257C66.4434 98.6279 66.4434 98.6301 66.4434 98.6323L66.4434 127.632H50.4434L50.4434 98.6323C50.4434 98.6289 50.4434 98.6254 50.4434 98.622Z" fill="#111111"/>
<path d="M84.4434 66.6323V50.6323H100.443V66.6323L84.4434 66.6323Z" fill="#111111"/>
</svg>
