<svg width="335" height="166" viewBox="0 0 335 166" fill="#111111" xmlns="http://www.w3.org/2000/svg">
<path d="M99.8501 60.4534C99.8501 66.0428 95.3191 70.5738 89.7297 70.5738C84.1404 70.5738 79.6093 66.0428 79.6093 60.4534C79.6093 54.8641 84.1404 50.333 89.7297 50.333C95.3191 50.333 99.8501 54.8641 99.8501 60.4534Z" fill="#111111"/>
<path d="M84.2745 104.999C65.8651 104.999 50.9414 90.0758 50.9414 71.6664V55.6665C69.3508 55.6665 84.2753 70.5902 84.2753 88.9996L84.2745 104.999Z" fill="#111111"/>
<path d="M120.941 66.333C102.532 66.333 87.6083 81.2567 87.6083 99.6661V115.666C106.018 115.666 120.941 100.742 120.941 82.3329V66.333Z" fill="#111111"/>
<path d="M182.576 60.2776V100.41H174.527V74.3066L163.775 100.41H157.681L146.872 74.3066V100.41H138.822V60.2776H147.964L160.728 90.1178L173.492 60.2776H182.576Z" fill="#111111"/>
<path d="M192.317 64.7623C190.899 64.7623 189.71 64.3215 188.752 63.4399C187.832 62.52 187.372 61.3892 187.372 60.0476C187.372 58.7061 187.832 57.5945 188.752 56.7129C189.71 55.793 190.899 55.333 192.317 55.333C193.735 55.333 194.904 55.793 195.824 56.7129C196.782 57.5945 197.262 58.7061 197.262 60.0476C197.262 61.3892 196.782 62.52 195.824 63.4399C194.904 64.3215 193.735 64.7623 192.317 64.7623ZM196.284 68.557V100.41H188.235V68.557H196.284Z" fill="#111111"/>
<path d="M219.588 68.097C223.383 68.097 226.449 69.3044 228.788 71.7192C231.126 74.0957 232.295 77.4305 232.295 81.7235V100.41H224.245V82.8159C224.245 80.2861 223.613 78.3504 222.348 77.0088C221.083 75.629 219.358 74.939 217.173 74.939C214.95 74.939 213.187 75.629 211.884 77.0088C210.619 78.3504 209.987 80.2861 209.987 82.8159V100.41H201.937V68.557H209.987V72.5242C211.06 71.1443 212.421 70.071 214.069 69.3044C215.755 68.4995 217.595 68.097 219.588 68.097Z" fill="#111111"/>
<path d="M247.021 75.169V90.5778C247.021 91.6511 247.27 92.4368 247.769 92.9351C248.305 93.3951 249.187 93.6251 250.414 93.6251H254.151V100.41H249.091C242.307 100.41 238.914 97.1131 238.914 90.5203V75.169H232.941V68.557H238.914V60.6801H247.021V68.557V75.169Z" fill="#111111"/>
<path d="M284.33 68.557L264.609 115.473H256.042L262.941 99.6046L250.177 68.557H259.204L267.426 90.8078L275.763 68.557H284.33Z" fill="#111111"/>
</svg>
