<svg width="534" height="209" viewBox="0 0 534 209" fill="#111111" xmlns="http://www.w3.org/2000/svg">
<path d="M185.788 116.811H169.805L167.16 124.458H158.708L173.139 84.269H182.511L196.943 124.458H188.433L185.788 116.811ZM183.604 110.372L177.797 93.5832L171.989 110.372H183.604Z" fill="#111111"/>
<path d="M230.107 92.6058V124.458H222V120.434C220.965 121.814 219.605 122.906 217.918 123.711C216.27 124.478 214.468 124.861 212.514 124.861C210.022 124.861 207.818 124.343 205.902 123.308C203.985 122.235 202.471 120.683 201.359 118.651C200.286 116.581 199.75 114.128 199.75 111.292V92.6058H207.799V110.142C207.799 112.672 208.431 114.627 209.696 116.007C210.961 117.348 212.686 118.019 214.871 118.019C217.094 118.019 218.838 117.348 220.103 116.007C221.368 114.627 222 112.672 222 110.142V92.6058H230.107Z" fill="#111111"/>
<path d="M245.121 99.2178V114.627C245.121 115.7 245.37 116.486 245.869 116.984C246.405 117.444 247.287 117.674 248.513 117.674H252.251V124.458H247.191C240.407 124.458 237.014 121.162 237.014 114.569V99.2178H233.22V92.6058H237.014V84.7289H245.121V92.6058H252.251V99.2178H245.121Z" fill="#111111"/>
<path d="M269.884 124.976C266.818 124.976 264.058 124.305 261.605 122.963C259.152 121.584 257.216 119.648 255.798 117.156C254.418 114.665 253.728 111.79 253.728 108.532C253.728 105.274 254.437 102.399 255.855 99.9078C257.312 97.4163 259.286 95.4998 261.777 94.1582C264.269 92.7783 267.048 92.0884 270.114 92.0884C273.181 92.0884 275.96 92.7783 278.451 94.1582C280.943 95.4998 282.897 97.4163 284.316 99.9078C285.772 102.399 286.5 105.274 286.5 108.532C286.5 111.79 285.753 114.665 284.258 117.156C282.802 119.648 280.808 121.584 278.279 122.963C275.787 124.305 272.989 124.976 269.884 124.976ZM269.884 117.961C271.341 117.961 272.702 117.616 273.966 116.926C275.27 116.198 276.305 115.125 277.071 113.707C277.838 112.288 278.221 110.564 278.221 108.532C278.221 105.504 277.416 103.185 275.806 101.575C274.235 99.9269 272.299 99.1028 269.999 99.1028C267.699 99.1028 265.764 99.9269 264.192 101.575C262.659 103.185 261.892 105.504 261.892 108.532C261.892 111.56 262.64 113.898 264.135 115.547C265.668 117.156 267.584 117.961 269.884 117.961Z" fill="#111111"/>
<path d="M329.662 92.1459C333.572 92.1459 336.715 93.3533 339.091 95.7681C341.506 98.1446 342.714 101.479 342.714 105.772V124.458H334.664V106.865C334.664 104.373 334.032 102.476 332.767 101.173C331.502 99.8311 329.777 99.1603 327.592 99.1603C325.407 99.1603 323.663 99.8311 322.36 101.173C321.095 102.476 320.463 104.373 320.463 106.865V124.458H312.413V106.865C312.413 104.373 311.781 102.476 310.516 101.173C309.251 99.8311 307.526 99.1603 305.342 99.1603C303.118 99.1603 301.355 99.8311 300.052 101.173C298.787 102.476 298.155 104.373 298.155 106.865V124.458H290.105V92.6058H298.155V96.458C299.189 95.1165 300.512 94.0624 302.122 93.2958C303.77 92.5292 305.571 92.1459 307.526 92.1459C310.018 92.1459 312.241 92.6825 314.196 93.7557C316.151 94.7907 317.665 96.2855 318.738 98.2404C319.773 96.4005 321.268 94.9248 323.223 93.8132C325.216 92.7016 327.362 92.1459 329.662 92.1459Z" fill="#111111"/>
<path d="M345.982 108.417C345.982 105.197 346.615 102.342 347.88 99.8503C349.183 97.3588 350.927 95.4423 353.112 94.1007C355.335 92.7591 357.807 92.0884 360.529 92.0884C362.905 92.0884 364.975 92.5675 366.738 93.5257C368.54 94.484 369.977 95.6914 371.05 97.148V92.6058H379.157V124.458H371.05V119.801C370.016 121.296 368.578 122.542 366.738 123.538C364.937 124.497 362.848 124.976 360.471 124.976C357.788 124.976 355.335 124.286 353.112 122.906C350.927 121.526 349.183 119.59 347.88 117.099C346.615 114.569 345.982 111.675 345.982 108.417ZM371.05 108.532C371.05 106.577 370.667 104.91 369.901 103.53C369.134 102.112 368.099 101.039 366.796 100.31C365.493 99.5436 364.093 99.1603 362.599 99.1603C361.104 99.1603 359.724 99.5245 358.459 100.253C357.194 100.981 356.159 102.054 355.354 103.472C354.588 104.852 354.204 106.501 354.204 108.417C354.204 110.334 354.588 112.02 355.354 113.477C356.159 114.895 357.194 115.987 358.459 116.754C359.762 117.521 361.142 117.904 362.599 117.904C364.093 117.904 365.493 117.54 366.796 116.811C368.099 116.045 369.134 114.972 369.901 113.592C370.667 112.173 371.05 110.487 371.05 108.532Z" fill="#111111"/>
<path d="M394.091 99.2178V114.627C394.091 115.7 394.34 116.486 394.838 116.984C395.375 117.444 396.257 117.674 397.483 117.674H401.22V124.458H396.161C389.376 124.458 385.984 121.162 385.984 114.569V99.2178H382.189V92.6058H385.984V84.7289H394.091V92.6058H401.22V99.2178H394.091Z" fill="#111111"/>
<path d="M408.792 88.8111C407.374 88.8111 406.186 88.3703 405.228 87.4887C404.308 86.5688 403.848 85.438 403.848 84.0965C403.848 82.7549 404.308 81.6433 405.228 80.7617C406.186 79.8418 407.374 79.3818 408.792 79.3818C410.21 79.3818 411.38 79.8418 412.299 80.7617C413.258 81.6433 413.737 82.7549 413.737 84.0965C413.737 85.438 413.258 86.5688 412.299 87.4887C411.38 88.3703 410.21 88.8111 408.792 88.8111ZM412.759 92.6058V124.458H404.71V92.6058H412.759Z" fill="#111111"/>
<path d="M432.556 124.976C429.49 124.976 426.73 124.305 424.277 122.963C421.824 121.584 419.888 119.648 418.47 117.156C417.09 114.665 416.4 111.79 416.4 108.532C416.4 105.274 417.109 102.399 418.527 99.9078C419.984 97.4163 421.958 95.4998 424.449 94.1582C426.941 92.7783 429.72 92.0884 432.786 92.0884C435.853 92.0884 438.632 92.7783 441.123 94.1582C443.615 95.4998 445.57 97.4163 446.988 99.9078C448.444 102.399 449.173 105.274 449.173 108.532C449.173 111.79 448.425 114.665 446.93 117.156C445.474 119.648 443.481 121.584 440.951 122.963C438.459 124.305 435.661 124.976 432.556 124.976ZM432.556 117.961C434.013 117.961 435.374 117.616 436.639 116.926C437.942 116.198 438.977 115.125 439.743 113.707C440.51 112.288 440.893 110.564 440.893 108.532C440.893 105.504 440.088 103.185 438.478 101.575C436.907 99.9269 434.971 99.1028 432.671 99.1028C430.372 99.1028 428.436 99.9269 426.864 101.575C425.331 103.185 424.564 105.504 424.564 108.532C424.564 111.56 425.312 113.898 426.807 115.547C428.34 117.156 430.257 117.961 432.556 117.961Z" fill="#111111"/>
<path d="M470.428 92.1459C474.223 92.1459 477.29 93.3533 479.628 95.7681C481.966 98.1446 483.135 101.479 483.135 105.772V124.458H475.086V106.865C475.086 104.335 474.453 102.399 473.188 101.058C471.923 99.6778 470.198 98.9878 468.014 98.9878C465.79 98.9878 464.027 99.6778 462.724 101.058C461.459 102.399 460.827 104.335 460.827 106.865V124.458H452.777V92.6058H460.827V96.573C461.9 95.1931 463.261 94.1199 464.909 93.3533C466.595 92.5483 468.435 92.1459 470.428 92.1459Z" fill="#111111"/>
<path d="M92.7515 91.7712V82.0872C80.9416 82.4936 71.4924 92.1955 71.4924 104.104V105.646H50.8032V104.104C50.8032 80.7686 69.514 61.803 92.7515 61.3916V50.917L128.21 71.7295L92.7515 91.7712Z" fill="#111111"/>
<path d="M110.928 104.104V105.646C110.928 117.555 101.48 127.256 89.6704 127.663V117.98L54.2121 138.021L89.6704 158.834V148.359C112.907 147.947 131.618 128.982 131.618 105.646V104.104H110.928Z" fill="#111111"/>
</svg>
